<?xml version="1.0" encoding="UTF-8"?>
<svg xmlns="http://www.w3.org/2000/svg" xmlns:xlink="http://www.w3.org/1999/xlink" width="224.87999pt" height="225pt" viewBox="0 0 224.87999 225" version="1.2">
<defs>
<clipPath id="clip1">
  <path d="M 119 34 L 151 34 L 151 97 L 119 97 Z M 119 34 "/>
</clipPath>
<clipPath id="clip2">
  <path d="M -67.3125 129.289062 L 71.554688 -33.0625 L 210.546875 85.828125 L 71.683594 248.175781 Z M -67.3125 129.289062 "/>
</clipPath>
<clipPath id="clip3">
  <path d="M -67.3125 129.289062 L 71.554688 -33.0625 L 210.546875 85.828125 L 71.683594 248.175781 Z M -67.3125 129.289062 "/>
</clipPath>
<clipPath id="clip4">
  <path d="M 18 129 L 97 129 L 97 214 L 18 214 Z M 18 129 "/>
</clipPath>
<clipPath id="clip5">
  <path d="M -67.3125 129.289062 L 71.554688 -33.0625 L 210.546875 85.828125 L 71.683594 248.175781 Z M -67.3125 129.289062 "/>
</clipPath>
<clipPath id="clip6">
  <path d="M -67.3125 129.289062 L 71.554688 -33.0625 L 210.546875 85.828125 L 71.683594 248.175781 Z M -67.3125 129.289062 "/>
</clipPath>
<clipPath id="clip7">
  <path d="M 5 60 L 79 60 L 79 150 L 5 150 Z M 5 60 "/>
</clipPath>
<clipPath id="clip8">
  <path d="M -67.3125 129.289062 L 71.554688 -33.0625 L 210.546875 85.828125 L 71.683594 248.175781 Z M -67.3125 129.289062 "/>
</clipPath>
<clipPath id="clip9">
  <path d="M -67.3125 129.289062 L 71.554688 -33.0625 L 210.546875 85.828125 L 71.683594 248.175781 Z M -67.3125 129.289062 "/>
</clipPath>
<clipPath id="clip10">
  <path d="M 0 65 L 184 65 L 184 186 L 0 186 Z M 0 65 "/>
</clipPath>
<clipPath id="clip11">
  <path d="M -67.3125 129.289062 L 71.554688 -33.0625 L 210.546875 85.828125 L 71.683594 248.175781 Z M -67.3125 129.289062 "/>
</clipPath>
<clipPath id="clip12">
  <path d="M -67.3125 129.289062 L 71.554688 -33.0625 L 210.546875 85.828125 L 71.683594 248.175781 Z M -67.3125 129.289062 "/>
</clipPath>
<clipPath id="clip13">
  <path d="M 44 145 L 61 145 L 61 162 L 44 162 Z M 44 145 "/>
</clipPath>
<clipPath id="clip14">
  <path d="M -67.3125 129.289062 L 71.554688 -33.0625 L 210.546875 85.828125 L 71.683594 248.175781 Z M -67.3125 129.289062 "/>
</clipPath>
<clipPath id="clip15">
  <path d="M -67.3125 129.289062 L 71.554688 -33.0625 L 210.546875 85.828125 L 71.683594 248.175781 Z M -67.3125 129.289062 "/>
</clipPath>
<clipPath id="clip16">
  <path d="M 49 142 L 62 142 L 62 162 L 49 162 Z M 49 142 "/>
</clipPath>
<clipPath id="clip17">
  <path d="M -67.3125 129.289062 L 71.554688 -33.0625 L 210.546875 85.828125 L 71.683594 248.175781 Z M -67.3125 129.289062 "/>
</clipPath>
<clipPath id="clip18">
  <path d="M -67.3125 129.289062 L 71.554688 -33.0625 L 210.546875 85.828125 L 71.683594 248.175781 Z M -67.3125 129.289062 "/>
</clipPath>
<clipPath id="clip19">
  <path d="M 51 140 L 63 140 L 63 155 L 51 155 Z M 51 140 "/>
</clipPath>
<clipPath id="clip20">
  <path d="M -67.3125 129.289062 L 71.554688 -33.0625 L 210.546875 85.828125 L 71.683594 248.175781 Z M -67.3125 129.289062 "/>
</clipPath>
<clipPath id="clip21">
  <path d="M -67.3125 129.289062 L 71.554688 -33.0625 L 210.546875 85.828125 L 71.683594 248.175781 Z M -67.3125 129.289062 "/>
</clipPath>
<clipPath id="clip22">
  <path d="M 59 140 L 71 140 L 71 153 L 59 153 Z M 59 140 "/>
</clipPath>
<clipPath id="clip23">
  <path d="M -67.3125 129.289062 L 71.554688 -33.0625 L 210.546875 85.828125 L 71.683594 248.175781 Z M -67.3125 129.289062 "/>
</clipPath>
<clipPath id="clip24">
  <path d="M -67.3125 129.289062 L 71.554688 -33.0625 L 210.546875 85.828125 L 71.683594 248.175781 Z M -67.3125 129.289062 "/>
</clipPath>
<clipPath id="clip25">
  <path d="M 62 139 L 71 139 L 71 153 L 62 153 Z M 62 139 "/>
</clipPath>
<clipPath id="clip26">
  <path d="M -67.3125 129.289062 L 71.554688 -33.0625 L 210.546875 85.828125 L 71.683594 248.175781 Z M -67.3125 129.289062 "/>
</clipPath>
<clipPath id="clip27">
  <path d="M -67.3125 129.289062 L 71.554688 -33.0625 L 210.546875 85.828125 L 71.683594 248.175781 Z M -67.3125 129.289062 "/>
</clipPath>
<clipPath id="clip28">
  <path d="M 64 137 L 72 137 L 72 148 L 64 148 Z M 64 137 "/>
</clipPath>
<clipPath id="clip29">
  <path d="M -67.3125 129.289062 L 71.554688 -33.0625 L 210.546875 85.828125 L 71.683594 248.175781 Z M -67.3125 129.289062 "/>
</clipPath>
<clipPath id="clip30">
  <path d="M -67.3125 129.289062 L 71.554688 -33.0625 L 210.546875 85.828125 L 71.683594 248.175781 Z M -67.3125 129.289062 "/>
</clipPath>
<clipPath id="clip31">
  <path d="M 10 37 L 51 37 L 51 75 L 10 75 Z M 10 37 "/>
</clipPath>
<clipPath id="clip32">
  <path d="M -67.3125 129.289062 L 71.554688 -33.0625 L 210.546875 85.828125 L 71.683594 248.175781 Z M -67.3125 129.289062 "/>
</clipPath>
<clipPath id="clip33">
  <path d="M -67.3125 129.289062 L 71.554688 -33.0625 L 210.546875 85.828125 L 71.683594 248.175781 Z M -67.3125 129.289062 "/>
</clipPath>
<clipPath id="clip34">
  <path d="M 7 58 L 55 58 L 55 81 L 7 81 Z M 7 58 "/>
</clipPath>
<clipPath id="clip35">
  <path d="M -67.3125 129.289062 L 71.554688 -33.0625 L 210.546875 85.828125 L 71.683594 248.175781 Z M -67.3125 129.289062 "/>
</clipPath>
<clipPath id="clip36">
  <path d="M -67.3125 129.289062 L 71.554688 -33.0625 L 210.546875 85.828125 L 71.683594 248.175781 Z M -67.3125 129.289062 "/>
</clipPath>
<clipPath id="clip37">
  <path d="M 1 70 L 26 70 L 26 152 L 1 152 Z M 1 70 "/>
</clipPath>
<clipPath id="clip38">
  <path d="M -67.3125 129.289062 L 71.554688 -33.0625 L 210.546875 85.828125 L 71.683594 248.175781 Z M -67.3125 129.289062 "/>
</clipPath>
<clipPath id="clip39">
  <path d="M -67.3125 129.289062 L 71.554688 -33.0625 L 210.546875 85.828125 L 71.683594 248.175781 Z M -67.3125 129.289062 "/>
</clipPath>
<clipPath id="clip40">
  <path d="M 8 36 L 58 36 L 58 84 L 8 84 Z M 8 36 "/>
</clipPath>
<clipPath id="clip41">
  <path d="M -67.3125 129.289062 L 71.554688 -33.0625 L 210.546875 85.828125 L 71.683594 248.175781 Z M -67.3125 129.289062 "/>
</clipPath>
<clipPath id="clip42">
  <path d="M -67.3125 129.289062 L 71.554688 -33.0625 L 210.546875 85.828125 L 71.683594 248.175781 Z M -67.3125 129.289062 "/>
</clipPath>
<clipPath id="clip43">
  <path d="M 36 50 L 40 50 L 40 54 L 36 54 Z M 36 50 "/>
</clipPath>
<clipPath id="clip44">
  <path d="M -67.3125 129.289062 L 71.554688 -33.0625 L 210.546875 85.828125 L 71.683594 248.175781 Z M -67.3125 129.289062 "/>
</clipPath>
<clipPath id="clip45">
  <path d="M -67.3125 129.289062 L 71.554688 -33.0625 L 210.546875 85.828125 L 71.683594 248.175781 Z M -67.3125 129.289062 "/>
</clipPath>
<clipPath id="clip46">
  <path d="M 19 52 L 24 52 L 24 57 L 19 57 Z M 19 52 "/>
</clipPath>
<clipPath id="clip47">
  <path d="M -67.3125 129.289062 L 71.554688 -33.0625 L 210.546875 85.828125 L 71.683594 248.175781 Z M -67.3125 129.289062 "/>
</clipPath>
<clipPath id="clip48">
  <path d="M -67.3125 129.289062 L 71.554688 -33.0625 L 210.546875 85.828125 L 71.683594 248.175781 Z M -67.3125 129.289062 "/>
</clipPath>
<clipPath id="clip49">
  <path d="M 26 54 L 36 54 L 36 60 L 26 60 Z M 26 54 "/>
</clipPath>
<clipPath id="clip50">
  <path d="M -67.3125 129.289062 L 71.554688 -33.0625 L 210.546875 85.828125 L 71.683594 248.175781 Z M -67.3125 129.289062 "/>
</clipPath>
<clipPath id="clip51">
  <path d="M -67.3125 129.289062 L 71.554688 -33.0625 L 210.546875 85.828125 L 71.683594 248.175781 Z M -67.3125 129.289062 "/>
</clipPath>
<clipPath id="clip52">
  <path d="M 27 57 L 33 57 L 33 61 L 27 61 Z M 27 57 "/>
</clipPath>
<clipPath id="clip53">
  <path d="M -67.3125 129.289062 L 71.554688 -33.0625 L 210.546875 85.828125 L 71.683594 248.175781 Z M -67.3125 129.289062 "/>
</clipPath>
<clipPath id="clip54">
  <path d="M -67.3125 129.289062 L 71.554688 -33.0625 L 210.546875 85.828125 L 71.683594 248.175781 Z M -67.3125 129.289062 "/>
</clipPath>
</defs>
<g id="surface1">
<g clip-path="url(#clip1)" clip-rule="nonzero">
<g clip-path="url(#clip2)" clip-rule="nonzero">
<g clip-path="url(#clip3)" clip-rule="nonzero">
<path style=" stroke:none;fill-rule:nonzero;fill:rgb(74.119568%,68.238831%,66.668701%);fill-opacity:1;" d="M 119.332031 96.238281 L 125.351562 72.726562 L 145.574219 57.953125 L 149.996094 34.265625 L 150.300781 34.277344 L 146.441406 59.027344 L 127.828125 73.355469 L 125.339844 94.355469 L 119.332031 96.238281 "/>
</g>
</g>
</g>
<g clip-path="url(#clip4)" clip-rule="nonzero">
<g clip-path="url(#clip5)" clip-rule="nonzero">
<g clip-path="url(#clip6)" clip-rule="nonzero">
<path style=" stroke:none;fill-rule:nonzero;fill:rgb(100%,34.118652%,34.118652%);fill-opacity:1;" d="M 18.605469 130.332031 L 91.414062 213.808594 C 91.414062 213.808594 100.167969 214.808594 95.375 202.960938 L 49.214844 129.367188 L 18.605469 130.332031 "/>
</g>
</g>
</g>
<g clip-path="url(#clip7)" clip-rule="nonzero">
<g clip-path="url(#clip8)" clip-rule="nonzero">
<g clip-path="url(#clip9)" clip-rule="nonzero">
<path style=" stroke:none;fill-rule:nonzero;fill:rgb(91.758728%,11.369324%,17.248535%);fill-opacity:1;" d="M 50.046875 60.289062 C 50.976562 60.976562 93.703125 105.648438 73.097656 130.90625 C 52.492188 156.160156 62.21875 148.414062 62.21875 148.414062 C 62.21875 148.414062 -18.582031 146.671875 12.09375 67.316406 L 29.679688 61.203125 L 50.046875 60.289062 "/>
</g>
</g>
</g>
<g clip-path="url(#clip10)" clip-rule="nonzero">
<g clip-path="url(#clip11)" clip-rule="nonzero">
<g clip-path="url(#clip12)" clip-rule="nonzero">
<path style=" stroke:none;fill-rule:nonzero;fill:rgb(74.119568%,68.238831%,66.668701%);fill-opacity:1;" d="M -0.652344 173.566406 L 71.066406 134.21875 L 94.757812 106.921875 L 183.183594 65.367188 L 183.46875 66.316406 L 99.085938 109.324219 L 71.777344 139.40625 L -1.398438 185.664062 L -0.652344 173.566406 "/>
</g>
</g>
</g>
<g clip-path="url(#clip13)" clip-rule="nonzero">
<g clip-path="url(#clip14)" clip-rule="nonzero">
<g clip-path="url(#clip15)" clip-rule="nonzero">
<path style=" stroke:none;fill-rule:nonzero;fill:rgb(36.079407%,31.369019%,25.489807%);fill-opacity:1;" d="M 45.855469 151.3125 C 45.855469 151.3125 42.019531 142.953125 47.652344 145.550781 C 53.285156 148.152344 59.722656 154.335938 60.707031 161.59375 C 60.707031 161.59375 48.507812 145.296875 45.855469 151.3125 "/>
</g>
</g>
</g>
<g clip-path="url(#clip16)" clip-rule="nonzero">
<g clip-path="url(#clip17)" clip-rule="nonzero">
<g clip-path="url(#clip18)" clip-rule="nonzero">
<path style=" stroke:none;fill-rule:nonzero;fill:rgb(36.079407%,31.369019%,25.489807%);fill-opacity:1;" d="M 49.582031 148.515625 C 49.582031 148.515625 47.695312 139.972656 52.417969 143.519531 C 57.136719 147.070312 61.886719 154.109375 61.34375 161.054688 C 61.34375 161.054688 53.261719 143.453125 49.582031 148.515625 "/>
</g>
</g>
</g>
<g clip-path="url(#clip19)" clip-rule="nonzero">
<g clip-path="url(#clip20)" clip-rule="nonzero">
<g clip-path="url(#clip21)" clip-rule="nonzero">
<path style=" stroke:none;fill-rule:nonzero;fill:rgb(36.079407%,31.369019%,25.489807%);fill-opacity:1;" d="M 51.992188 145.46875 C 51.992188 145.46875 50.847656 138.671875 55.128906 141.183594 C 59.40625 143.691406 63.433594 149.039062 62.359375 154.726562 C 62.359375 154.726562 55.953125 141.0625 51.992188 145.46875 "/>
</g>
</g>
</g>
<g clip-path="url(#clip22)" clip-rule="nonzero">
<g clip-path="url(#clip23)" clip-rule="nonzero">
<g clip-path="url(#clip24)" clip-rule="nonzero">
<path style=" stroke:none;fill-rule:nonzero;fill:rgb(36.079407%,31.369019%,25.489807%);fill-opacity:1;" d="M 59.953125 145.207031 C 59.953125 145.207031 57.25 139.3125 61.222656 141.144531 C 65.191406 142.980469 69.730469 147.335938 70.421875 152.453125 C 70.421875 152.453125 61.824219 140.964844 59.953125 145.207031 "/>
</g>
</g>
</g>
<g clip-path="url(#clip25)" clip-rule="nonzero">
<g clip-path="url(#clip26)" clip-rule="nonzero">
<g clip-path="url(#clip27)" clip-rule="nonzero">
<path style=" stroke:none;fill-rule:nonzero;fill:rgb(36.079407%,31.369019%,25.489807%);fill-opacity:1;" d="M 62.582031 143.234375 C 62.582031 143.234375 61.25 137.210938 64.578125 139.714844 C 67.90625 142.214844 71.257812 147.175781 70.875 152.074219 C 70.875 152.074219 65.175781 139.667969 62.582031 143.234375 "/>
</g>
</g>
</g>
<g clip-path="url(#clip28)" clip-rule="nonzero">
<g clip-path="url(#clip29)" clip-rule="nonzero">
<g clip-path="url(#clip30)" clip-rule="nonzero">
<path style=" stroke:none;fill-rule:nonzero;fill:rgb(36.079407%,31.369019%,25.489807%);fill-opacity:1;" d="M 64.28125 141.085938 C 64.28125 141.085938 63.472656 136.292969 66.492188 138.0625 C 69.507812 139.832031 72.347656 143.601562 71.585938 147.613281 C 71.585938 147.613281 67.070312 137.980469 64.28125 141.085938 "/>
</g>
</g>
</g>
<g clip-path="url(#clip31)" clip-rule="nonzero">
<g clip-path="url(#clip32)" clip-rule="nonzero">
<g clip-path="url(#clip33)" clip-rule="nonzero">
<path style=" stroke:none;fill-rule:nonzero;fill:rgb(91.758728%,11.369324%,17.248535%);fill-opacity:1;" d="M 47.121094 54.53125 C 46.101562 50.269531 25.828125 20.417969 15.789062 50.390625 C 15.421875 51.480469 13.632812 56.832031 13.632812 56.832031 L 10.664062 74.148438 L 50.292969 63.246094 L 48.625 58.65625 L 47.121094 54.53125 "/>
</g>
</g>
</g>
<g clip-path="url(#clip34)" clip-rule="nonzero">
<g clip-path="url(#clip35)" clip-rule="nonzero">
<g clip-path="url(#clip36)" clip-rule="nonzero">
<path style=" stroke:none;fill-rule:nonzero;fill:rgb(91.758728%,11.369324%,17.248535%);fill-opacity:1;" d="M 54.988281 66.65625 C 54.988281 66.65625 41 85.460938 7.664062 79.390625 L 11.570312 70.371094 L 48.625 58.65625 L 54.988281 66.65625 "/>
</g>
</g>
</g>
<g clip-path="url(#clip37)" clip-rule="nonzero">
<g clip-path="url(#clip38)" clip-rule="nonzero">
<g clip-path="url(#clip39)" clip-rule="nonzero">
<path style=" stroke:none;fill-rule:nonzero;fill:rgb(100%,34.118652%,34.118652%);fill-opacity:1;" d="M 9.234375 70.226562 C 9.234375 70.226562 -12.535156 90.035156 15.625 140.039062 L 24.074219 152 C 24.074219 152 26.039062 149.71875 24.820312 127.746094 C 24.820312 127.746094 27.902344 114.382812 23.375 101.007812 C 23.375 101.007812 18 68.082031 9.234375 70.226562 "/>
</g>
</g>
</g>
<g clip-path="url(#clip40)" clip-rule="nonzero">
<g clip-path="url(#clip41)" clip-rule="nonzero">
<g clip-path="url(#clip42)" clip-rule="nonzero">
<path style=" stroke:none;fill-rule:nonzero;fill:rgb(100%,34.118652%,34.118652%);fill-opacity:1;" d="M 53.878906 64.453125 C 53.878906 64.453125 54.066406 73.574219 48.273438 69.59375 C 48.273438 69.59375 45.296875 81.835938 40.078125 76.558594 C 40.078125 76.558594 37.289062 85.6875 32.75 80.527344 C 32.75 80.527344 31.699219 86.636719 26.0625 80.761719 C 26.0625 80.761719 22.152344 86.199219 18.984375 79.179688 C 18.984375 79.179688 17.089844 84.09375 13.945312 77.953125 C 13.945312 77.953125 8.582031 79.640625 8.121094 75.191406 L 11.570312 70.371094 C 11.570312 70.371094 8.148438 44.429688 23.738281 38.226562 C 23.738281 38.226562 30.128906 34.621094 39.941406 39.648438 C 39.941406 39.648438 47.253906 55.839844 50.875 58.511719 C 51.496094 58.96875 53.808594 61.816406 53.808594 61.816406 L 57.054688 64.308594 C 57.054688 64.308594 55.628906 66.503906 53.878906 64.453125 "/>
</g>
</g>
</g>
<g clip-path="url(#clip43)" clip-rule="nonzero">
<g clip-path="url(#clip44)" clip-rule="nonzero">
<g clip-path="url(#clip45)" clip-rule="nonzero">
<path style=" stroke:none;fill-rule:nonzero;fill:rgb(36.079407%,31.369019%,25.489807%);fill-opacity:1;" d="M 36.351562 52.921875 C 36.933594 53.746094 38.074219 53.945312 38.898438 53.367188 C 39.722656 52.785156 39.917969 51.644531 39.335938 50.820312 C 38.75 49.996094 37.609375 49.796875 36.785156 50.375 C 35.960938 50.957031 35.765625 52.097656 36.351562 52.921875 "/>
</g>
</g>
</g>
<g clip-path="url(#clip46)" clip-rule="nonzero">
<g clip-path="url(#clip47)" clip-rule="nonzero">
<g clip-path="url(#clip48)" clip-rule="nonzero">
<path style=" stroke:none;fill-rule:nonzero;fill:rgb(36.079407%,31.369019%,25.489807%);fill-opacity:1;" d="M 20.097656 55.863281 C 20.679688 56.6875 21.820312 56.886719 22.648438 56.304688 C 23.472656 55.726562 23.667969 54.585938 23.082031 53.757812 C 22.5 52.933594 21.359375 52.734375 20.535156 53.316406 C 19.710938 53.894531 19.515625 55.035156 20.097656 55.863281 "/>
</g>
</g>
</g>
<g clip-path="url(#clip49)" clip-rule="nonzero">
<g clip-path="url(#clip50)" clip-rule="nonzero">
<g clip-path="url(#clip51)" clip-rule="nonzero">
<path style=" stroke:none;fill-rule:nonzero;fill:rgb(36.079407%,31.369019%,25.489807%);fill-opacity:1;" d="M 35.066406 58.148438 C 35.066406 58.148438 29.5625 49.4375 26.363281 59.742188 C 26.363281 59.742188 30.285156 56.382812 35.066406 58.148438 "/>
</g>
</g>
</g>
<g clip-path="url(#clip52)" clip-rule="nonzero">
<g clip-path="url(#clip53)" clip-rule="nonzero">
<g clip-path="url(#clip54)" clip-rule="nonzero">
<path style=" stroke:none;fill-rule:nonzero;fill:rgb(36.079407%,31.369019%,25.489807%);fill-opacity:1;" d="M 32.925781 57.570312 C 32.925781 57.570312 31.40625 64.910156 27.867188 58 L 32.925781 57.570312 "/>
</g>
</g>
</g>
</g>
</svg>
