<?xml version="1.0" encoding="UTF-8"?>
<svg xmlns="http://www.w3.org/2000/svg" xmlns:xlink="http://www.w3.org/1999/xlink" width="224.87999pt" height="225pt" viewBox="0 0 224.87999 225" version="1.2">
<defs>
<clipPath id="clip1">
  <path d="M 76 38 L 224.761719 38 L 224.761719 175 L 76 175 Z M 76 38 "/>
</clipPath>
</defs>
<g id="surface1">
<g clip-path="url(#clip1)" clip-rule="nonzero">
<path style=" stroke:none;fill-rule:nonzero;fill:rgb(96.859741%,58.81958%,59.21936%);fill-opacity:1;" d="M 224.660156 65.058594 C 230.246094 60.882812 230.179688 40.433594 225.199219 38.667969 C 222.019531 37.539062 90.894531 37.746094 77.5625 134.316406 C 75.382812 150.050781 78.203125 167.425781 84.046875 174.90625 C 84.046875 174.90625 76.980469 128.792969 109.964844 94.855469 C 149.484375 54.191406 218.625 68.402344 224.660156 65.058594 "/>
</g>
<path style=" stroke:none;fill-rule:nonzero;fill:rgb(100%,34.118652%,34.118652%);fill-opacity:1;" d="M 77.910156 152.609375 C 75.808594 155.875 79.863281 174.382812 89.417969 187.210938 C 97.207031 197.671875 110.929688 205.617188 130.613281 206.757812 C 129.511719 184.390625 124.625 173.792969 114.949219 166.441406 C 104.75 158.683594 80.585938 149.625 77.910156 152.609375 "/>
<path style=" stroke:none;fill-rule:nonzero;fill:rgb(100%,34.118652%,34.118652%);fill-opacity:1;" d="M 79.171875 151.65625 C 70.730469 154.039062 49.503906 190.738281 66.292969 216.769531 C 104.4375 196.445312 85.355469 152.550781 79.171875 151.65625 "/>
<path style=" stroke:none;fill-rule:nonzero;fill:rgb(91.758728%,11.369324%,17.248535%);fill-opacity:1;" d="M 52.726562 39.957031 C 43.488281 52.152344 38.394531 64.523438 37.25 65.964844 C 33.953125 70.105469 15.800781 74.582031 10.066406 89.125 C 5.378906 101.011719 18.632812 119.683594 23.296875 123.152344 C 26.839844 125.792969 36.832031 115.085938 43.863281 108.726562 C 44.605469 108.050781 46.011719 106.691406 46.832031 107.316406 C 47.605469 107.902344 48.601562 111.800781 44.722656 117.339844 C 40.65625 123.144531 28.449219 131.355469 32.441406 132.765625 C 50.792969 139.25 69.351562 107.382812 74.289062 106.503906 C 76.53125 106.820312 78.164062 109.015625 80.210938 109.746094 C 84.125 111.140625 90.355469 101.996094 89.496094 98.882812 C 88.648438 95.8125 87.089844 96.949219 85.457031 94.007812 C 82.308594 88.464844 89.164062 81.125 92.851562 81.71875 C 95.449219 82.144531 98.496094 85.476562 100.960938 85.304688 C 102.59375 85.191406 108.875 78.292969 107.671875 74.957031 C 106.71875 72.324219 101.707031 69.441406 100.914062 66.824219 C 99.558594 62.355469 108.894531 38.59375 126.421875 43.144531 C 136.839844 45.851562 142.164062 52.351562 143.0625 58.878906 C 143.808594 64.292969 141.238281 69.703125 138.507812 73.175781 C 129.699219 84.382812 118.296875 71.65625 122.007812 66.628906 C 127.417969 59.300781 132.734375 67.984375 134.859375 65.578125 C 136.449219 63.78125 134.980469 59.625 129.90625 56.53125 C 125.007812 53.550781 119.667969 55.128906 115.40625 60.6875 C 111.144531 66.242188 108.484375 77.035156 120.328125 85.15625 C 131.554688 92.851562 143.714844 87.070312 149.414062 79.9375 C 164.890625 60.582031 149.257812 34.484375 135.28125 23.894531 C 116.585938 9.734375 76.726562 8.277344 52.726562 39.957031 "/>
<path style=" stroke:none;fill-rule:nonzero;fill:rgb(94.509888%,90.19928%,76.078796%);fill-opacity:1;" d="M 22.1875 82.148438 C 15.375 89.742188 16.59375 93.078125 19.265625 97.472656 C 21.9375 101.863281 29.34375 107.316406 35.4375 101.980469 C 42.972656 95.375 43.085938 88.296875 39.988281 83.617188 C 36.257812 77.980469 27.871094 75.816406 22.1875 82.148438 "/>
<path style=" stroke:none;fill-rule:nonzero;fill:rgb(40.779114%,35.289001%,37.249756%);fill-opacity:1;" d="M 21.804688 94.3125 C 23.722656 95.773438 25.964844 95.285156 27.15625 93.714844 C 28.664062 91.726562 28.035156 89.503906 26.5625 88.386719 C 25.085938 87.269531 22.757812 87.265625 20.886719 89.738281 C 19.898438 91.042969 19.78125 92.78125 21.804688 94.3125 "/>
</g>
</svg>
