<?xml version="1.0" encoding="UTF-8"?>
<svg xmlns="http://www.w3.org/2000/svg" xmlns:xlink="http://www.w3.org/1999/xlink" width="224.87999pt" height="225pt" viewBox="0 0 224.87999 225" version="1.2">
<defs>
<clipPath id="clip1">
  <path d="M 4.214844 0.0585938 L 220.851562 0.0585938 L 220.851562 215 L 4.214844 215 Z M 4.214844 0.0585938 "/>
</clipPath>
</defs>
<g id="surface1">
<g clip-path="url(#clip1)" clip-rule="nonzero">
<path style=" stroke:none;fill-rule:evenodd;fill:rgb(91.758728%,11.369324%,17.248535%);fill-opacity:1;" d="M 61.296875 85.644531 C 65.070312 85.675781 68.097656 88.75 68.066406 92.507812 C 68.039062 96.265625 64.953125 99.289062 61.179688 99.257812 C 57.410156 99.222656 54.375 96.148438 54.40625 92.390625 C 54.441406 88.632812 57.527344 85.617188 61.296875 85.644531 Z M 59.28125 90.160156 C 60.402344 90.167969 61.296875 91.074219 61.289062 92.191406 C 61.28125 93.308594 60.363281 94.199219 59.25 94.191406 C 58.128906 94.183594 57.234375 93.273438 57.242188 92.15625 C 57.25 91.042969 58.164062 90.152344 59.28125 90.160156 Z M 43.375 184.890625 C 32.910156 175.558594 24.800781 164.578125 19.070312 152.699219 C 13.125 140.363281 9.761719 127.054688 9.015625 113.609375 C 7.5625 87.210938 16.210938 60.257812 35.320312 39.007812 C 44.695312 28.585938 55.710938 20.503906 67.636719 14.796875 C 80.027344 8.875 93.382812 5.523438 106.890625 4.78125 C 120.390625 4.042969 134.039062 5.914062 147.003906 10.457031 C 159.480469 14.820312 171.324219 21.652344 181.789062 30.984375 C 201.519531 48.59375 213.128906 72.214844 216.363281 97.125 C 219.191406 118.84375 215.644531 141.542969 205.574219 162.070312 C 209.980469 154.582031 213.386719 146.699219 215.804688 138.59375 C 219.359375 126.691406 220.789062 114.3125 220.109375 102.054688 C 219.339844 88.085938 215.84375 74.265625 209.671875 61.457031 C 203.726562 49.128906 195.304688 37.734375 184.429688 28.042969 C 173.566406 18.347656 161.269531 11.25 148.316406 6.714844 C 134.867188 2.007812 120.691406 0.0585938 106.671875 0.835938 C 92.644531 1.601562 78.769531 5.082031 65.914062 11.230469 C 53.535156 17.144531 42.09375 25.542969 32.367188 36.367188 C 22.632812 47.1875 15.507812 59.433594 10.957031 72.339844 C 6.230469 85.742188 4.273438 99.855469 5.050781 113.828125 C 5.820312 127.796875 9.316406 141.609375 15.488281 154.414062 C 21.429688 166.746094 29.859375 178.140625 40.722656 187.839844 C 42.949219 189.832031 45.242188 191.707031 47.582031 193.480469 C 83.519531 220.636719 144.855469 224.9375 172.394531 183.742188 C 181.90625 169.527344 185.527344 150.667969 179.890625 127.914062 C 176.535156 114.34375 170.160156 101.773438 159.90625 91.675781 C 159.304688 91.082031 158.914062 90.609375 159.171875 89.75 C 159.207031 89.640625 159.238281 89.566406 159.230469 89.558594 C 159.222656 89.550781 159.179688 89.558594 159.121094 89.566406 C 157.523438 89.792969 157.015625 89.199219 157.0625 87.527344 C 157.070312 87.394531 157.082031 87.300781 157.070312 87.292969 C 157.0625 87.285156 157.023438 87.300781 156.964844 87.308594 C 153.476562 88.234375 154.320312 84.835938 154.238281 84.769531 C 154.230469 84.761719 153.8125 84.933594 153.375 85.003906 C 151.777344 85.261719 150.757812 84.46875 150.96875 82.734375 C 150.984375 82.570312 151 82.460938 151 82.460938 C 150.992188 82.460938 150.90625 82.496094 150.78125 82.535156 C 148.574219 83.410156 146.945312 82.902344 147.480469 80.109375 C 147.488281 80.085938 147.488281 80.0625 147.488281 80.0625 C 147.480469 80.054688 147.363281 80.085938 147.230469 80.136719 C 145.070312 80.859375 143.65625 80.84375 143.699219 78.164062 C 143.699219 77.988281 143.699219 77.863281 143.691406 77.863281 C 143.683594 77.855469 143.515625 77.921875 143.28125 77.996094 C 138.605469 79.527344 139.660156 75.746094 139.582031 75.714844 C 139.558594 75.695312 139.015625 76.039062 138.992188 76.054688 C 135.609375 78.046875 135.175781 73.90625 135.144531 73.890625 C 135.058594 73.847656 131.671875 76.480469 130.785156 72.921875 C 130.710938 72.621094 130.683594 72.40625 130.667969 72.398438 C 130.667969 72.398438 130.609375 72.445312 130.550781 72.511719 C 129.429688 73.746094 127.75 74.023438 126.730469 72.503906 C 126.320312 71.882812 126.136719 71.195312 126.117188 71.195312 C 126.09375 71.1875 123.375 74.457031 121.71875 70.980469 C 121.550781 70.628906 121.484375 70.355469 121.46875 70.355469 C 121.402344 70.347656 121.234375 70.5625 120.957031 70.832031 C 118.191406 73.464844 116.75 69.832031 116.691406 69.832031 C 116.683594 69.832031 116.542969 70 116.398438 70.171875 C 113.648438 73.371094 112.21875 69.714844 111.917969 69.722656 C 111.917969 69.722656 109.976562 73.332031 107.792969 70.890625 C 107.417969 70.464844 107.199219 70 107.105469 70.007812 C 107.023438 70.015625 106.941406 70.289062 106.746094 70.640625 C 105.058594 73.714844 102.574219 70.773438 102.472656 70.796875 C 102.433594 70.796875 102.316406 71.066406 102.113281 71.40625 C 101.117188 73.105469 99.355469 73.863281 97.941406 72.128906 C 97.855469 72.03125 97.808594 71.945312 97.796875 71.957031 C 97.640625 72.007812 97.5625 75.304688 94.042969 73.960938 C 93.984375 73.9375 93.324219 73.570312 93.289062 73.589844 C 93.273438 73.589844 93.132812 74.554688 92.949219 75.003906 C 91.984375 77.34375 89.324219 75.582031 89.167969 75.652344 C 89.058594 75.714844 88.917969 79.027344 86.398438 78.261719 C 85.921875 78.113281 85.570312 77.871094 85.535156 77.894531 C 85.351562 78.03125 85.90625 81.363281 83.136719 80.835938 C 82.835938 80.777344 82.5 80.613281 82.476562 80.628906 C 82.46875 80.644531 82.675781 81.304688 82.585938 81.820312 C 82.425781 82.636719 81.707031 83.027344 80.894531 82.820312 C 80.542969 82.734375 80.25 82.621094 80.210938 82.644531 C 80.167969 82.675781 80.199219 82.761719 80.234375 82.894531 C 80.285156 83.160156 80.226562 83.417969 80.101562 83.652344 C 79.339844 84.984375 77.84375 84.585938 77.824219 82.777344 C 77.808594 81.753906 78.125 80.351562 78.601562 78.929688 C 79.179688 77.222656 80.402344 75.753906 79.546875 75.804688 C 78.058594 75.878906 76.378906 76.15625 74.65625 76.546875 C 59.644531 79.960938 46.519531 89.910156 44.136719 105.78125 C 44.070312 106.253906 44.019531 106.597656 44.019531 106.945312 C 44.019531 107.554688 44.304688 107.753906 45.390625 107.394531 C 46.3125 107.105469 47.3125 106.828125 48.375 106.585938 C 55.167969 105.0625 66.9375 104.40625 72.859375 108.9375 L 72.691406 108.871094 C 65.839844 106.289062 53.285156 106.019531 46.242188 108.652344 C 46.085938 108.710938 45.933594 108.777344 45.800781 108.863281 C 45.347656 109.136719 45.140625 109.554688 45.65625 110.246094 C 45.917969 110.601562 46.253906 110.917969 46.527344 111.179688 C 46.847656 111.496094 47.082031 111.726562 47.136719 112.195312 C 47.15625 112.34375 47.15625 112.492188 47.121094 112.636719 C 47.082031 112.785156 47.03125 112.878906 47.03125 112.878906 C 47.03125 112.878906 47.289062 112.835938 47.523438 112.84375 C 48.71875 112.910156 49.15625 113.550781 49.085938 114.683594 C 49.085938 114.703125 49.085938 114.726562 49.085938 114.726562 C 49.09375 114.726562 49.230469 114.710938 49.429688 114.683594 C 50.402344 114.570312 51.277344 114.550781 51.589844 115.667969 C 51.671875 115.941406 51.695312 116.167969 51.714844 116.175781 C 51.746094 116.183594 51.988281 116.019531 52.332031 115.894531 C 53.042969 115.644531 53.820312 115.828125 54.199219 116.507812 C 54.289062 116.675781 54.375 116.875 54.457031 117.050781 C 54.492188 117.125 54.523438 117.210938 54.539062 117.210938 C 54.539062 117.210938 54.617188 117.101562 54.742188 116.976562 C 55.660156 116.09375 56.933594 116.550781 57.425781 117.550781 C 57.511719 117.71875 57.550781 117.851562 57.59375 117.859375 C 57.652344 117.867188 57.859375 117.558594 58.222656 117.300781 C 59.140625 116.632812 60.101562 116.933594 60.628906 117.875 C 60.738281 118.066406 60.832031 118.25 60.832031 118.25 C 60.832031 118.25 61.046875 117.902344 61.390625 117.585938 C 62.078125 116.96875 62.835938 116.976562 63.546875 117.550781 C 63.910156 117.84375 64.152344 118.292969 64.152344 118.285156 C 64.160156 118.285156 64.183594 118.25 64.210938 118.199219 C 65.632812 115.769531 67.460938 118.125 67.53125 118.117188 C 67.53125 118.117188 67.546875 118.074219 67.554688 118.027344 C 68.039062 116.375 69.636719 116.46875 70.667969 117.59375 C 70.75 117.683594 70.824219 117.769531 70.824219 117.769531 C 70.867188 117.660156 70.984375 117.226562 71.285156 116.867188 C 72.105469 115.886719 73.167969 116.449219 73.945312 117.101562 C 73.988281 117.132812 74.019531 117.160156 74.019531 117.160156 C 74.019531 117.160156 74.027344 117.144531 74.035156 117.117188 C 74.5625 115.644531 75.507812 115.441406 76.679688 116.328125 C 76.78125 116.410156 76.871094 116.476562 76.878906 116.476562 C 77.046875 116.433594 77.171875 114.09375 79.457031 115.660156 C 79.539062 115.71875 79.617188 115.769531 79.625 115.761719 C 79.625 115.761719 79.625 115.710938 79.632812 115.652344 C 79.632812 115.285156 79.734375 115.011719 79.882812 114.800781 C 80.46875 113.984375 81.386719 114.460938 82.117188 114.785156 C 82.15625 114.800781 82.191406 114.820312 82.191406 114.820312 C 82.191406 114.820312 82.191406 114.800781 82.199219 114.792969 C 82.375 113.425781 83.269531 113.085938 84.449219 113.695312 C 84.640625 113.785156 84.769531 113.867188 84.777344 113.867188 C 84.777344 113.867188 84.75 113.710938 84.757812 113.492188 C 84.769531 112.886719 85.292969 112.484375 85.796875 112.261719 C 85.90625 112.210938 85.921875 112.210938 86.054688 112.136719 C 85.855469 111.859375 85.644531 111.535156 85.4375 111.1875 C 83.277344 107.554688 82.191406 103.289062 82.59375 99.054688 C 82.75 97.355469 83.171875 95.722656 83.929688 94.28125 C 84.074219 94.007812 84.230469 93.742188 84.40625 93.492188 C 84.507812 93.339844 84.609375 93.199219 84.71875 93.058594 C 84.785156 92.976562 84.835938 92.925781 84.84375 92.933594 C 84.609375 93.808594 84.289062 94.984375 84.089844 96.050781 C 83.890625 97.125 83.773438 98.214844 83.746094 99.304688 C 83.5625 106.164062 86.105469 111.160156 90.957031 115.335938 C 96 119.683594 98.902344 122.359375 90.378906 125.355469 C 87.453125 126.390625 83.605469 127.457031 81.882812 130.199219 C 81.53125 130.753906 81.640625 130.855469 82.25 130.640625 C 82.960938 130.382812 83.964844 130.015625 84.894531 129.757812 C 85.546875 129.574219 86.289062 129.472656 86.714844 129.457031 C 87.152344 129.429688 87.285156 129.503906 86.875 129.847656 C 86.265625 130.347656 84.875 131.179688 85.746094 131.113281 C 87.125 130.996094 88.589844 130.839844 89.777344 130.695312 C 90.589844 130.605469 91.398438 130.480469 92.195312 130.324219 C 102.171875 128.332031 106.113281 121.457031 98.960938 113.519531 C 97.339844 111.71875 95.507812 110.054688 94.167969 108.445312 C 93.558594 107.710938 93.054688 107.0625 93.066406 107.078125 C 93.097656 107.113281 93.308594 107.246094 93.363281 107.289062 C 97.355469 109.945312 101.128906 113.410156 103.519531 117.585938 C 103.609375 117.742188 103.703125 117.894531 103.761719 118 C 104.261719 118.101562 104.507812 118.21875 104.742188 118.683594 C 104.855469 118.917969 104.890625 119.125 104.898438 119.125 C 104.898438 119.125 104.933594 119.109375 104.976562 119.09375 C 105.886719 118.640625 106.78125 118.375 107.382812 119.460938 C 107.574219 119.808594 107.652344 120.140625 107.726562 120.167969 C 107.726562 120.167969 107.800781 120.050781 107.925781 119.933594 C 108.847656 119.050781 110.117188 119.507812 110.613281 120.507812 C 110.695312 120.675781 110.738281 120.808594 110.777344 120.808594 C 110.835938 120.816406 111.054688 120.507812 111.40625 120.25 C 112.09375 119.757812 113.027344 119.765625 113.582031 120.457031 C 113.863281 120.808594 113.941406 121.207031 114.015625 121.207031 C 114.015625 121.207031 114.234375 120.859375 114.574219 120.542969 C 115.261719 119.925781 116.023438 119.933594 116.734375 120.507812 C 117.09375 120.800781 117.335938 121.242188 117.34375 121.242188 C 117.386719 121.242188 117.480469 120.957031 117.753906 120.683594 C 119.320312 119.082031 120.582031 121.082031 120.714844 121.074219 C 120.730469 121.066406 120.75 120.96875 120.789062 120.832031 C 121.140625 119.527344 122.765625 119.417969 123.640625 120.316406 C 123.84375 120.535156 123.984375 120.726562 124.011719 120.726562 C 124.050781 120.609375 124.167969 120.183594 124.472656 119.816406 C 125.015625 119.167969 125.851562 119.175781 126.535156 119.609375 C 126.847656 119.800781 127.140625 120.125 127.207031 120.117188 C 127.265625 120.101562 127.347656 119.640625 127.640625 119.257812 C 128.125 118.640625 128.886719 118.625 129.523438 119.027344 C 129.824219 119.21875 130.023438 119.441406 130.066406 119.433594 C 130.074219 119.425781 130.089844 119.285156 130.15625 119.09375 C 130.316406 118.601562 130.601562 118.285156 131.085938 118.09375 C 131.230469 118.042969 131.230469 118.050781 131.230469 118.050781 C 131.203125 117.933594 131.042969 117.507812 130.878906 117.066406 C 130.082031 114.96875 129.40625 113.300781 128.792969 111.144531 C 125.289062 98.714844 132.097656 95.773438 132.097656 95.78125 C 129.832031 97.921875 129.039062 101.3125 129.121094 104.605469 C 129.230469 108.820312 130.769531 112.933594 131.941406 115.941406 C 132.808594 118.167969 133.605469 121.582031 132.28125 123.640625 C 131.722656 124.507812 130.84375 124.949219 129.863281 125.222656 C 128.109375 125.722656 126.320312 125.757812 124.746094 126.523438 C 123.683594 127.03125 122.335938 128.113281 122.246094 129.375 C 122.238281 129.546875 122.253906 129.722656 122.304688 129.898438 C 122.355469 130.054688 122.640625 129.847656 123.140625 129.589844 C 124.203125 129.03125 126.070312 128.179688 127.78125 128.707031 C 127.941406 128.757812 127.910156 128.789062 127.808594 128.914062 C 127.363281 129.503906 126.761719 130.6875 127.011719 131.449219 C 127.0625 131.597656 127.148438 131.707031 127.257812 131.730469 C 127.390625 131.773438 127.546875 131.613281 127.714844 131.429688 C 128.617188 130.421875 129.855469 129.515625 131.1875 129.289062 C 132.046875 129.148438 132.507812 129.3125 132.339844 130.097656 C 132.132812 131.039062 133.183594 130.324219 133.527344 130.128906 C 138.3125 127.449219 140.246094 122.824219 139.257812 117.5 C 139.007812 116.125 138.664062 114.667969 138.304688 113.117188 C 137.835938 111.070312 137.511719 109.035156 137.976562 107.078125 C 138.222656 106.046875 138.65625 105.488281 138.65625 105.488281 C 138.613281 105.578125 138.589844 105.679688 138.554688 105.796875 C 137.660156 109.835938 140.101562 114.261719 140.722656 118.257812 C 140.796875 118.792969 140.871094 119.300781 140.9375 119.734375 C 166.640625 124.941406 176.601562 154.523438 166.632812 177.085938 C 157.609375 197.503906 137.71875 207.859375 116.15625 209.832031 C 107.082031 210.65625 97.847656 210.03125 89.265625 208.242188 C 75.03125 205.277344 61.589844 199.035156 49.890625 190.230469 C 47.640625 188.539062 45.464844 186.757812 43.375 184.890625 "/>
</g>
</g>
</svg>
