<?xml version="1.0" encoding="UTF-8"?>
<svg xmlns="http://www.w3.org/2000/svg" xmlns:xlink="http://www.w3.org/1999/xlink" width="224.87999pt" height="225pt" viewBox="0 0 224.87999 225" version="1.2">
<defs>
<clipPath id="clip1">
  <path d="M 7.191406 7.253906 L 217.675781 7.253906 L 217.675781 217.890625 L 7.191406 217.890625 Z M 7.191406 7.253906 "/>
</clipPath>
</defs>
<g id="surface1">
<g clip-path="url(#clip1)" clip-rule="nonzero">
<path style=" stroke:none;fill-rule:nonzero;fill:rgb(91.758728%,11.369324%,17.248535%);fill-opacity:1;" d="M 54.144531 7.253906 C 63.789062 7.253906 68.058594 10.214844 72.710938 13.664062 C 80.203125 12.917969 88.746094 15.917969 93.089844 23.863281 C 96.480469 30.0625 102.652344 41.347656 103.429688 49.488281 C 103.527344 50.011719 103.578125 50.535156 103.582031 51.066406 C 103.582031 51.085938 103.582031 51.113281 103.582031 51.136719 C 103.582031 51.710938 103.527344 52.28125 103.414062 52.847656 C 103.300781 53.414062 103.132812 53.960938 102.914062 54.492188 C 102.695312 55.027344 102.421875 55.53125 102.101562 56.011719 C 101.78125 56.488281 101.417969 56.933594 101.011719 57.339844 C 100.605469 57.75 100.160156 58.113281 99.679688 58.433594 C 99.203125 58.753906 98.695312 59.023438 98.164062 59.242188 C 97.632812 59.464844 97.082031 59.628906 96.519531 59.742188 C 95.953125 59.855469 95.382812 59.910156 94.804688 59.910156 C 107.292969 101.195312 182.570312 95.183594 182.570312 174.007812 L 182.570312 199.171875 C 187.367188 197.890625 190.984375 195.636719 193.679688 192.65625 C 197.816406 188.082031 200.125 181.515625 200.125 174.007812 C 200.117188 173.417969 200.167969 172.835938 200.273438 172.261719 C 200.382812 171.683594 200.550781 171.125 200.769531 170.578125 C 200.992188 170.035156 201.265625 169.519531 201.589844 169.03125 C 201.914062 168.539062 202.285156 168.089844 202.699219 167.675781 C 203.117188 167.257812 203.570312 166.890625 204.058594 166.566406 C 204.546875 166.242188 205.066406 165.96875 205.609375 165.75 C 206.152344 165.53125 206.714844 165.367188 207.292969 165.257812 C 207.867188 165.148438 208.449219 165.101562 209.039062 165.109375 C 209.613281 165.121094 210.183594 165.183594 210.746094 165.304688 C 211.308594 165.425781 211.855469 165.601562 212.382812 165.828125 C 212.910156 166.058594 213.410156 166.335938 213.886719 166.660156 C 214.359375 166.988281 214.796875 167.359375 215.199219 167.773438 C 215.597656 168.183594 215.957031 168.632812 216.269531 169.117188 C 216.582031 169.597656 216.84375 170.109375 217.058594 170.644531 C 217.269531 171.179688 217.429688 171.726562 217.53125 172.292969 C 217.636719 172.859375 217.683594 173.429688 217.675781 174.007812 C 217.675781 185.132812 214.226562 196.113281 206.707031 204.433594 C 199.1875 212.753906 187.628906 217.890625 173.792969 217.890625 L 156.242188 217.890625 L 156.242188 209.113281 C 156.242188 174.007812 138.695312 165.226562 128.917969 160.226562 C 134.832031 156.195312 138.6875 150.152344 138.6875 143.289062 C 138.6875 139.988281 137.757812 136.882812 136.1875 134.066406 C 137.316406 130.414062 138.695312 121.074219 138.6875 112.570312 C 127.839844 112.570312 119.746094 122.324219 119.746094 122.324219 C 117.386719 121.746094 114.9375 121.347656 112.359375 121.347656 C 109.777344 121.347656 107.332031 121.746094 104.96875 122.324219 C 104.96875 122.324219 98.824219 112.570312 86.027344 112.570312 C 86.019531 121.074219 87.398438 130.414062 88.53125 134.066406 C 86.960938 136.882812 86.027344 139.988281 86.027344 143.289062 C 86.027344 150.644531 90.414062 157.113281 97.085938 161.097656 C 95.804688 164.96875 94.804688 178.140625 94.804688 182.785156 C 94.804688 191.070312 96.953125 199.605469 98.164062 204.792969 C 96.09375 207.121094 94.804688 210.148438 94.804688 213.5 L 94.804688 217.890625 L 42.144531 217.890625 C 37.292969 217.890625 33.371094 213.957031 33.371094 209.113281 C 33.371094 204.269531 37.292969 200.335938 42.144531 200.335938 L 45.660156 200.335938 L 58.824219 134.496094 C 53.960938 128.472656 50.921875 120.917969 50.921875 112.570312 C 50.921875 68.496094 48.539062 59.910156 35.71875 59.910156 L 28.980469 59.910156 C 27.8125 59.910156 26.664062 59.753906 25.535156 59.445312 C 24.40625 59.136719 23.339844 58.683594 22.332031 58.089844 C 21.324219 57.496094 20.410156 56.78125 19.59375 55.945312 C 18.777344 55.109375 18.082031 54.179688 17.511719 53.15625 L 17.480469 53.140625 L 17.257812 52.710938 C 17.25 52.695312 17.246094 52.675781 17.238281 52.660156 L 8.207031 35.125 C 8.058594 34.910156 7.921875 34.683594 7.800781 34.453125 C 7.679688 34.222656 7.570312 33.984375 7.476562 33.738281 C 7.386719 33.496094 7.304688 33.246094 7.242188 32.992188 C 7.179688 32.738281 7.132812 32.480469 7.097656 32.222656 C 7.066406 31.960938 7.046875 31.699219 7.046875 31.4375 C 7.042969 31.175781 7.058594 30.917969 7.085938 30.65625 C 7.117188 30.398438 7.160156 30.140625 7.222656 29.882812 C 7.28125 29.628906 7.355469 29.378906 7.445312 29.132812 C 7.535156 28.886719 7.640625 28.648438 7.757812 28.414062 C 7.878906 28.179688 8.007812 27.957031 8.15625 27.738281 C 8.300781 27.519531 8.457031 27.3125 8.628906 27.113281 C 8.796875 26.914062 8.980469 26.726562 9.171875 26.550781 C 9.363281 26.371094 9.566406 26.207031 9.78125 26.054688 C 9.992188 25.902344 10.210938 25.761719 10.441406 25.632812 C 10.671875 25.507812 10.90625 25.394531 11.148438 25.296875 C 11.390625 25.199219 11.636719 25.113281 11.890625 25.046875 L 12.046875 24.992188 C 12.058594 24.992188 12.066406 24.992188 12.078125 24.992188 L 33.371094 18.53125 C 33.371094 18.53125 37.671875 7.253906 54.144531 7.253906 Z M 125.523438 138.902344 C 125.8125 138.902344 126.097656 138.929688 126.378906 138.984375 C 126.664062 139.042969 126.9375 139.125 127.203125 139.234375 C 127.46875 139.34375 127.722656 139.480469 127.960938 139.640625 C 128.199219 139.800781 128.421875 139.980469 128.625 140.1875 C 128.832031 140.390625 129.011719 140.609375 129.171875 140.851562 C 129.332031 141.089844 129.46875 141.34375 129.578125 141.609375 C 129.6875 141.875 129.769531 142.148438 129.828125 142.433594 C 129.882812 142.714844 129.910156 143 129.910156 143.289062 C 129.910156 143.578125 129.882812 143.863281 129.828125 144.144531 C 129.769531 144.425781 129.6875 144.703125 129.578125 144.96875 C 129.46875 145.234375 129.332031 145.488281 129.171875 145.726562 C 129.011719 145.964844 128.832031 146.1875 128.625 146.390625 C 128.421875 146.59375 128.199219 146.777344 127.960938 146.9375 C 127.722656 147.097656 127.46875 147.234375 127.203125 147.34375 C 126.9375 147.453125 126.664062 147.535156 126.378906 147.59375 C 126.097656 147.648438 125.8125 147.675781 125.523438 147.675781 C 125.234375 147.675781 124.949219 147.648438 124.667969 147.59375 C 124.386719 147.535156 124.109375 147.453125 123.84375 147.34375 C 123.578125 147.234375 123.324219 147.097656 123.085938 146.9375 C 122.847656 146.777344 122.625 146.59375 122.421875 146.390625 C 122.214844 146.1875 122.035156 145.964844 121.875 145.726562 C 121.714844 145.488281 121.578125 145.234375 121.46875 144.96875 C 121.359375 144.703125 121.277344 144.425781 121.21875 144.144531 C 121.164062 143.863281 121.136719 143.578125 121.136719 143.289062 C 121.136719 143 121.164062 142.714844 121.21875 142.433594 C 121.277344 142.148438 121.359375 141.875 121.46875 141.609375 C 121.578125 141.34375 121.714844 141.089844 121.875 140.851562 C 122.035156 140.609375 122.214844 140.390625 122.421875 140.1875 C 122.625 139.980469 122.847656 139.800781 123.085938 139.640625 C 123.324219 139.480469 123.578125 139.34375 123.84375 139.234375 C 124.109375 139.125 124.386719 139.042969 124.667969 138.984375 C 124.949219 138.929688 125.234375 138.902344 125.523438 138.902344 Z M 99.195312 138.902344 C 99.480469 138.902344 99.765625 138.929688 100.050781 138.984375 C 100.332031 139.042969 100.605469 139.125 100.875 139.234375 C 101.140625 139.34375 101.390625 139.480469 101.632812 139.640625 C 101.871094 139.800781 102.09375 139.980469 102.296875 140.1875 C 102.5 140.390625 102.683594 140.609375 102.84375 140.851562 C 103.003906 141.089844 103.136719 141.34375 103.25 141.609375 C 103.359375 141.875 103.441406 142.148438 103.496094 142.433594 C 103.554688 142.714844 103.582031 143 103.582031 143.289062 C 103.582031 143.578125 103.554688 143.863281 103.496094 144.144531 C 103.441406 144.425781 103.359375 144.703125 103.25 144.96875 C 103.136719 145.234375 103.003906 145.488281 102.84375 145.726562 C 102.683594 145.964844 102.5 146.1875 102.296875 146.390625 C 102.09375 146.59375 101.871094 146.777344 101.632812 146.9375 C 101.390625 147.097656 101.140625 147.234375 100.875 147.34375 C 100.605469 147.453125 100.332031 147.535156 100.050781 147.59375 C 99.765625 147.648438 99.480469 147.675781 99.195312 147.675781 C 98.90625 147.675781 98.621094 147.648438 98.335938 147.59375 C 98.054688 147.535156 97.78125 147.453125 97.515625 147.34375 C 97.25 147.234375 96.996094 147.097656 96.753906 146.9375 C 96.515625 146.777344 96.292969 146.59375 96.089844 146.390625 C 95.886719 146.1875 95.707031 145.964844 95.546875 145.726562 C 95.386719 145.488281 95.25 145.234375 95.140625 144.96875 C 95.027344 144.703125 94.945312 144.425781 94.890625 144.144531 C 94.832031 143.863281 94.804688 143.578125 94.804688 143.289062 C 94.804688 143 94.832031 142.714844 94.890625 142.433594 C 94.945312 142.148438 95.027344 141.875 95.140625 141.609375 C 95.25 141.34375 95.386719 141.089844 95.546875 140.851562 C 95.707031 140.609375 95.886719 140.390625 96.089844 140.1875 C 96.292969 139.980469 96.515625 139.800781 96.753906 139.640625 C 96.996094 139.480469 97.25 139.34375 97.515625 139.234375 C 97.78125 139.125 98.054688 139.042969 98.335938 138.984375 C 98.621094 138.929688 98.90625 138.902344 99.195312 138.902344 Z M 99.195312 138.902344 "/>
</g>
</g>
</svg>
